<svg xmlns="http://www.w3.org/2000/svg" width="187" height="67.5"><style>.st0{fill:#009fe8}.st1{fill:#717071}</style><g id="レイヤー_1"><path class="st0" d="M63.971 64.75a21.889 21.889 0 0 1-4.012-.687l.723-2.67a20.18 20.18 0 0 0 3.504.607l-.215 2.75zm4.063-.055l-.293-2.75a19.201 19.201 0 0 0 3.486-.696l.793 2.646a22.114 22.114 0 0 1-3.986.8zm-11.882-2.051a21.876 21.876 0 0 1-3.484-2.101l1.642-2.225a19.069 19.069 0 0 0 3.043 1.835l-1.201 2.491zm19.643-.265l-1.268-2.462a18.836 18.836 0 0 0 2.992-1.91l1.7 2.179a22.238 22.238 0 0 1-3.424 2.193zM49.63 57.846a22.07 22.07 0 0 1-2.498-3.209l2.334-1.485a19.881 19.881 0 0 0 2.181 2.801l-2.017 1.893zm32.579-.47l-2.099-1.802a19.752 19.752 0 0 0 2.11-2.87l2.371 1.423a21.814 21.814 0 0 1-2.382 3.249zm-36.934-6.36a22.28 22.28 0 0 1-1.164-3.896l2.713-.541a19.492 19.492 0 0 0 1.015 3.411l-2.564 1.026zm41.078-.552l-2.595-.96c.412-1.115.723-2.269.922-3.433l2.728.465a22.007 22.007 0 0 1-1.055 3.928zm-42.672-7.389v-.29c0-1.255.111-2.518.319-3.757l2.728.47a19.686 19.686 0 0 0-.281 3.287l.002.259-2.768.031zm41.272-.548a19.017 19.017 0 0 0-.377-3.537l2.71-.55c.266 1.325.415 2.684.434 4.04l-2.767.047zm-37.298-6.458l-2.591-.966a21.635 21.635 0 0 1 1.769-3.666l2.369 1.43a19.016 19.016 0 0 0-1.547 3.202zm35.902-.492a19.434 19.434 0 0 0-1.624-3.156l2.327-1.494a21.964 21.964 0 0 1 1.864 3.617l-2.567 1.033zm-32.281-5.538l-2.072-1.833a22.707 22.707 0 0 1 2.961-2.786l1.702 2.183a18.86 18.86 0 0 0-2.591 2.436zm28.471-.426c-.408-.432-.84-.851-1.292-1.252a22.34 22.34 0 0 0-1.374-1.108l1.64-2.227a22.601 22.601 0 0 1 3.039 2.692l-2.013 1.895zm-22.886-3.932l-1.27-2.458a21.856 21.856 0 0 1 3.772-1.523l.796 2.646a19.28 19.28 0 0 0-3.298 1.335zm17.172-.257a18.686 18.686 0 0 0-3.329-1.235l.716-2.673c1.31.35 2.589.827 3.817 1.414l-1.204 2.494zm-10.39-1.777l-.295-2.755c.785-.082 1.602-.155 2.369-.124.563 0 1.126.022 1.696.066l-.217 2.759c-.503-.04-.982-.064-1.507-.06a19.38 19.38 0 0 0-2.046.114z"/><path class="st1" d="M20.694 50.572c0 2.334-.831 4.326-2.482 5.98-1.651 1.651-3.644 2.478-5.977 2.478H2.591V27.822h8.916c2.336 0 4.328.829 5.98 2.48 1.653 1.651 2.48 3.648 2.48 5.982 0 3.107-1.35 5.496-4.043 7.165 2.939 1.084 4.77 4.014 4.77 7.123zm-3.307-14.288c0-1.611-.581-2.996-1.733-4.149-1.155-1.155-2.533-1.724-4.147-1.724H5.676c-.332 0-.501.16-.501.494v10.751c0 .33.168.501.501.501h5.831c1.613 0 2.992-.576 4.147-1.731 1.153-1.152 1.733-2.531 1.733-4.142zm.72 14.308c0-1.602-.855-3.105-2.006-4.255-1.152-1.148-2.981-1.596-4.594-1.596H5.676c-.332 0-.501.162-.501.499v10.751c0 .304.168.459.501.459h6.558c1.614 0 2.994-.574 4.145-1.707 1.155-1.134 1.728-2.517 1.728-4.151zM42.713 59.03h-9.916c-1.695 0-3.143-.601-4.353-1.813-1.206-1.206-1.809-2.662-1.809-4.353V27.822h2.582v25.042c0 .999.344 1.851 1.039 2.542.696.696 1.54 1.044 2.54 1.044h9.916v2.58zM128.126 27.822a159.34 159.34 0 0 1-.497 3.125l-4.211 24.873a4.109 4.109 0 0 1-1.434 2.547 4.094 4.094 0 0 1-2.717.993c-1.051 0-1.968-.33-2.739-.999-.773-.665-1.259-1.512-1.454-2.544l-4.204-24.955c-.089-.497-.399-.745-.935-.745-.507 0-.805.248-.891.747L104.8 55.817a4.07 4.07 0 0 1-1.427 2.544c-.791.669-1.698.999-2.722.999s-1.928-.33-2.719-.993a4.07 4.07 0 0 1-1.427-2.547l-4.75-27.998h2.622l4.634 27.582c.166.918.718 1.374 1.66 1.374.946 0 1.485-.457 1.624-1.372l4.209-24.995a3.477 3.477 0 0 1 1.208-2.065c.638-.545 1.39-.813 2.25-.813.831 0 1.574.277 2.225.835a3.36 3.36 0 0 1 1.188 2.081l4.211 24.958c.166.915.723 1.372 1.669 1.372.92 0 1.465-.457 1.629-1.37l4.668-27.586h2.574zM137.798 59.03h-2.589V27.822h2.589V59.03zM160.96 51.328c0 2.196-.787 4.076-2.356 5.641-1.569 1.571-3.462 2.356-5.687 2.356-2.221 0-4.12-.785-5.687-2.358-1.571-1.567-2.351-3.451-2.351-5.643v-1.919h2.58v1.906c0 1.494.534 2.77 1.607 3.832 1.068 1.064 2.354 1.593 3.852 1.593 1.503 0 2.781-.53 3.854-1.596 1.068-1.068 1.605-2.347 1.605-3.839a6.158 6.158 0 0 0-.98-3.367 5.957 5.957 0 0 0-2.648-2.287l-4.703-2.117c-1.56-.694-2.808-1.771-3.748-3.229a8.56 8.56 0 0 1-1.418-4.772c0-2.194.78-4.073 2.351-5.647 1.567-1.565 3.466-2.351 5.687-2.351 2.225 0 4.118.787 5.687 2.351 1.569 1.574 2.356 3.453 2.356 5.647v1.915h-2.584v-1.902c0-1.491-.537-2.768-1.605-3.834-1.073-1.062-2.351-1.594-3.854-1.594-1.498 0-2.784.537-3.852 1.605-1.073 1.061-1.607 2.349-1.607 3.845 0 1.226.33 2.349.997 3.373a6.121 6.121 0 0 0 2.657 2.289l4.676 2.108c1.583.725 2.839 1.804 3.77 3.249a8.582 8.582 0 0 1 1.401 4.745zM185 59.03h-2.586V45.196c0-.301-.166-.454-.497-.454h-11.212c-.33 0-.499.153-.499.454V59.03h-2.584V27.822h2.584v13.834c0 .33.169.501.499.501h11.212c.33 0 .497-.171.497-.501V27.822H185V59.03z"/><g><path class="st1" d="M6.075 7.391v-.036c.929-.334 1.529-1.105 1.529-1.997 0-.677-.246-1.2-.674-1.57-.536-.451-1.27-.663-2.389-.663-.733 0-1.449.083-1.95.185v8.903c.37.036.931.093 1.676.093 1.37 0 2.341-.261 2.948-.853.417-.401.725-.975.725-1.782-.001-1.365-1.009-2.078-1.865-2.28zM3.58 3.979c.182-.049.485-.083 1.013-.083 1.232 0 2.015.465 2.015 1.536v.008c0 .928-.769 1.619-1.966 1.619H3.58v-3.08zm.962 7.548c-.417 0-.733-.015-.962-.06v-3.65h.953c1.192 0 2.374.499 2.374 1.855-.001 1.362-1.115 1.855-2.365 1.855zM20.674 3.186h-.986v9.052h4.729v-.844h-3.743zM37.899 3.043c-2.269 0-3.943 1.792-3.943 4.743 0 2.823 1.589 4.594 3.841 4.594 2.136 0 3.914-1.565 3.914-4.752 0-2.733-1.494-4.585-3.812-4.585zm-.069 8.517c-1.842 0-2.841-1.873-2.841-3.803 0-1.923.869-3.896 2.861-3.896 1.937 0 2.83 1.994 2.83 3.814 0 2.067-.984 3.885-2.85 3.885zM60.72 7.874c-.288 1.119-.534 2.117-.716 3.154h-.035c-.126-.989-.392-2.068-.638-3.154l-1.139-4.682H57.19L55.944 7.89c-.297 1.164-.594 2.232-.725 3.145h-.038c-.151-.904-.406-1.995-.669-3.134L53.41 3.193h-1.048l2.247 9.046h1.013l1.301-4.847c.337-1.189.578-2.083.718-2.985h.024c.118.902.313 1.809.607 2.999l1.175 4.834h1.011l2.493-9.046H61.94l-1.22 4.68zM108.439 7.874c-.281 1.119-.537 2.117-.712 3.154h-.038c-.124-.989-.388-2.068-.643-3.154l-1.135-4.682h-.999l-1.246 4.698c-.301 1.164-.598 2.232-.727 3.145h-.038c-.155-.904-.401-1.995-.665-3.134l-1.104-4.708h-1.046l2.245 9.046h1.011l1.307-4.847c.33-1.189.567-2.083.711-2.985h.022c.122.902.31 1.809.607 2.999l1.177 4.834h1.013l2.491-9.046h-1.009l-1.222 4.68zM122.016 3.186h.982v9.052h-.982zM137.711 7.168c-1.214-.52-1.764-.966-1.764-1.861 0-.651.476-1.421 1.74-1.421.758 0 1.33.247 1.593.413l.295-.818c-.344-.214-.997-.427-1.853-.427-1.651 0-2.77 1.006-2.77 2.384 0 1.25.929 2.044 2.296 2.554 1.17.476 1.66 1.024 1.66 1.915 0 .975-.714 1.627-1.924 1.627-.738 0-1.463-.235-1.946-.556l-.275.818c.452.319 1.341.572 2.163.572 1.946 0 2.994-1.108 2.994-2.542.001-1.296-.75-2.04-2.209-2.658zM157.011 7.058h-4.326V3.192h-.985v9.046h.985V7.914h4.326v4.324h.984V3.192h-.984zM86.196 2.71l-4.395 4.394-4.397-4.394-.605.606 4.395 4.392-4.395 4.395.605.608 4.397-4.394 4.395 4.394.61-.608-4.395-4.395 4.395-4.392zM170.61 3.753h13.058v.974H170.61zM170.61 10.536h13.058v.975H170.61z"/></g><g><path class="st0" d="M75.221-20.745a9.63 9.63 0 0 1-1.768-.303l.318-1.177a8.86 8.86 0 0 0 1.544.268l-.094 1.212zm1.79-.025l-.129-1.212a8.443 8.443 0 0 0 1.536-.307l.35 1.166a9.614 9.614 0 0 1-1.757.353zm-5.236-.903a9.617 9.617 0 0 1-1.535-.926l.724-.98c.422.312.873.583 1.341.809l-.53 1.097zm8.656-.117l-.559-1.085a8.292 8.292 0 0 0 1.318-.842l.749.96c-.47.368-.98.692-1.508.967zm-11.53-1.997a9.809 9.809 0 0 1-1.101-1.414l1.028-.654c.281.437.604.853.961 1.234l-.888.834zm14.356-.207l-.925-.794c.356-.402.664-.826.93-1.265l1.045.627a9.694 9.694 0 0 1-1.05 1.432zm-16.275-2.803a9.747 9.747 0 0 1-.513-1.717l1.195-.238c.104.513.252 1.018.447 1.503l-1.129.452zm18.101-.243l-1.144-.423c.182-.491.318-1 .406-1.513l1.202.205a9.678 9.678 0 0 1-.464 1.731zM66.28-30.296v-.128c0-.553.049-1.109.141-1.655l1.202.207a8.684 8.684 0 0 0-.124 1.448l.001.114-1.22.014zm18.186-.241a8.384 8.384 0 0 0-.166-1.559l1.194-.242c.117.584.183 1.183.191 1.78l-1.219.021zm-16.435-2.846l-1.142-.426c.207-.56.471-1.104.779-1.615l1.044.63c-.268.445-.498.92-.681 1.411zm15.82-.217a8.58 8.58 0 0 0-.716-1.391l1.025-.658c.322.504.598 1.038.821 1.594l-1.13.455zm-14.224-2.44l-.913-.808c.398-.448.838-.862 1.305-1.228l.75.962c-.411.318-.794.68-1.142 1.074zm12.545-.188a9.29 9.29 0 0 0-.569-.552 9.563 9.563 0 0 0-.605-.488l.723-.981a9.646 9.646 0 0 1 1.339 1.187l-.888.834zM72.088-37.96l-.56-1.083a9.648 9.648 0 0 1 1.662-.671l.351 1.166a8.531 8.531 0 0 0-1.453.588zm7.566-.113a8.202 8.202 0 0 0-1.467-.544l.315-1.178a9.685 9.685 0 0 1 1.682.623l-.53 1.099zm-4.578-.783l-.13-1.214a7.519 7.519 0 0 1 1.044-.055c.248 0 .496.01.747.029l-.096 1.216a8.217 8.217 0 0 0-1.565.024z"/></g><g><path class="st1" d="M56.151-26.992c0 1.028-.366 1.906-1.094 2.635a3.59 3.59 0 0 1-2.634 1.092h-4.249v-13.751h3.929c1.029 0 1.907.365 2.635 1.093a3.593 3.593 0 0 1 1.093 2.636c0 1.369-.595 2.422-1.781 3.157 1.295.477 2.101 1.768 2.101 3.138zm-1.457-6.296c0-.71-.256-1.32-.764-1.828a2.486 2.486 0 0 0-1.827-.76h-2.569c-.146 0-.221.07-.221.218v4.737c0 .146.074.221.221.221h2.569a2.49 2.49 0 0 0 1.827-.763 2.49 2.49 0 0 0 .764-1.825zm.318 6.305c0-.706-.377-1.368-.884-1.875-.508-.506-1.313-.703-2.024-.703h-2.569c-.146 0-.221.071-.221.22v4.737c0 .134.074.202.221.202h2.89c.711 0 1.319-.253 1.826-.752.508-.5.761-1.11.761-1.829zM65.854-23.266h-4.369a2.61 2.61 0 0 1-1.918-.799 2.62 2.62 0 0 1-.797-1.918v-11.034h1.138v11.034c0 .44.151.815.458 1.12.307.307.679.46 1.119.46h4.369v1.137zM103.489-37.017a74.67 74.67 0 0 1-.219 1.377l-1.855 10.96a1.81 1.81 0 0 1-.632 1.122 1.805 1.805 0 0 1-1.197.438c-.463 0-.867-.146-1.207-.44a1.898 1.898 0 0 1-.641-1.121l-1.853-10.996c-.039-.219-.176-.328-.412-.328-.224 0-.354.109-.393.329l-1.87 10.995a1.79 1.79 0 0 1-.629 1.121 1.8 1.8 0 0 1-1.199.44 1.81 1.81 0 0 1-1.198-.438 1.791 1.791 0 0 1-.629-1.122l-2.093-12.337h1.155l2.042 12.153c.073.404.316.606.731.606.417 0 .654-.201.716-.605l1.854-11.014c.072-.371.249-.672.532-.91.281-.24.612-.358.991-.358.366 0 .693.122.98.368.289.244.463.55.524.917l1.855 10.997c.073.403.318.605.735.605.405 0 .646-.201.718-.604l2.057-12.155h1.137zM107.751-23.266h-1.141v-13.751h1.141v13.751zM117.957-26.659c0 .968-.347 1.796-1.038 2.485a3.41 3.41 0 0 1-2.506 1.038 3.41 3.41 0 0 1-2.506-1.039c-.692-.69-1.036-1.52-1.036-2.486v-.846h1.137v.84c0 .658.235 1.221.708 1.688a2.318 2.318 0 0 0 1.697.702c.662 0 1.226-.233 1.698-.703a2.307 2.307 0 0 0 .707-1.691c0-.538-.145-1.03-.432-1.483a2.628 2.628 0 0 0-1.167-1.008l-2.072-.933a3.729 3.729 0 0 1-1.651-1.423 3.775 3.775 0 0 1-.625-2.102c0-.967.344-1.795 1.036-2.488a3.418 3.418 0 0 1 2.506-1.036c.98 0 1.814.347 2.506 1.036.691.693 1.038 1.521 1.038 2.488v.844h-1.139v-.838c0-.657-.236-1.22-.707-1.689a2.324 2.324 0 0 0-1.698-.702c-.66 0-1.227.236-1.697.707a2.299 2.299 0 0 0-.708 1.694c0 .54.146 1.035.44 1.486.293.452.684.787 1.171 1.009l2.06.929a3.824 3.824 0 0 1 1.661 1.432c.41.634.617 1.331.617 2.089zM128.55-23.266h-1.14v-6.096c0-.133-.073-.2-.219-.2h-4.94c-.146 0-.22.067-.22.2v6.096h-1.139v-13.751h1.139v6.096c0 .146.074.221.22.221h4.94c.146 0 .219-.075.219-.221v-6.096h1.14v13.751z"/></g><g><path class="st1" d="M50.009-46.839v-.016c.409-.147.674-.487.674-.88 0-.298-.108-.529-.297-.692-.236-.199-.56-.292-1.053-.292-.323 0-.639.037-.859.082v3.923c.163.016.41.041.738.041.604 0 1.031-.115 1.299-.376.184-.177.319-.43.319-.785 0-.602-.444-.916-.821-1.005zm-1.1-1.503c.08-.021.214-.037.446-.037.543 0 .888.205.888.677v.003c0 .409-.339.713-.866.713h-.468v-1.356zm.424 3.325c-.184 0-.323-.007-.424-.026v-1.608h.42c.525 0 1.046.22 1.046.817 0 .601-.491.817-1.042.817zM56.441-48.692h-.434v3.989h2.084v-.372h-1.65zM64.031-48.755c-1 0-1.737.79-1.737 2.09 0 1.244.7 2.024 1.692 2.024.941 0 1.725-.69 1.725-2.094 0-1.203-.658-2.02-1.68-2.02zm-.03 3.753c-.812 0-1.252-.825-1.252-1.676 0-.847.383-1.717 1.261-1.717.854 0 1.247.878 1.247 1.681 0 .911-.434 1.712-1.256 1.712zM74.087-46.626c-.127.493-.235.933-.315 1.39h-.016c-.056-.436-.173-.911-.281-1.39l-.502-2.063h-.442l-.549 2.07c-.131.513-.262.983-.319 1.386h-.017c-.066-.398-.179-.879-.295-1.381l-.485-2.075h-.462l.99 3.986h.446l.573-2.136c.148-.524.255-.918.316-1.315h.011c.052.397.138.797.268 1.321l.518 2.13h.445l1.099-3.986h-.445l-.538 2.063zM95.113-46.626c-.124.493-.236.933-.314 1.39h-.017c-.055-.436-.171-.911-.283-1.39L94-48.689h-.44l-.549 2.07c-.133.513-.264.983-.32 1.386h-.017a26.098 26.098 0 0 0-.293-1.381l-.486-2.075h-.461l.989 3.986h.445l.576-2.136c.145-.524.25-.918.313-1.315h.01c.054.397.137.797.268 1.321l.518 2.13H95l1.098-3.986h-.444l-.541 2.063zM101.096-48.692h.433v3.989h-.433zM108.012-46.937c-.535-.229-.777-.426-.777-.82 0-.287.21-.626.767-.626.334 0 .586.109.702.182l.13-.36c-.151-.094-.439-.188-.816-.188-.728 0-1.221.443-1.221 1.05 0 .551.409.901 1.012 1.125.516.21.731.451.731.844 0 .43-.314.717-.848.717-.325 0-.645-.104-.857-.245l-.121.36c.199.141.591.252.953.252.857 0 1.319-.488 1.319-1.12-.001-.571-.332-.899-.974-1.171zM116.516-46.985h-1.907v-1.704h-.433v3.986h.433v-1.905h1.907v1.905h.433v-3.986h-.433zM85.313-48.901l-1.937 1.936-1.938-1.936-.266.267 1.936 1.935-1.936 1.936.266.268 1.938-1.936 1.937 1.936.268-.268-1.936-1.936 1.936-1.935zM122.508-48.442h5.754v.429h-5.754zM122.508-45.453h5.754v.43h-5.754z"/></g><path class="st1" d="M48-44.75h92.25v4.5H48z"/></g></svg>